# xmcd CD database file
#
# Track frame offsets:
#	150
#	13784
#	29287
#	42405
#	58512
#	73662
#	97419
#	112715
#	131327
#	146752
#	162136
#	194588
#	208342
#	224963
#	253859
#
# Disc length: 3580 seconds
#
# Revision: 0
# Processed by: cddbd v1.5.2PL0 Copyright (c) Steve Scherf et al.
# Submitted via: CDex 1.51
#
DISCID=ef0dfa0f
DTITLE=Thomas Schleiken - Echoes
DYEAR=2016
DGENRE=Blues
TTITLE0=Globetramper`s Treat
TTITLE1=Freight Train
TTITLE2=For Libba And John
TTITLE3=Louis Collins
TTITLE4=An Und Für Sich
TTITLE5=Time To Fly
TTITLE6=Echoes From Bentonia
TTITLE7=On Soco Road
TTITLE8=Ship Is At The Landing
TTITLE9=Beech Mountain Rag
TTITLE10=Big Boss Blues
TTITLE11=Creole Belle
TTITLE12=Anadune
TTITLE13=Lonesaome Valey
TTITLE14=Blue Horizon
EXTD=YEAR: 2016
EXTT0=
EXTT1=
EXTT2=
EXTT3=
EXTT4=
EXTT5=
EXTT6=
EXTT7=
EXTT8=
EXTT9=
EXTT10=
EXTT11=
EXTT12=
EXTT13=
EXTT14=
PLAYORDER=
